<svg xml:space="preserve" xmlns="http://www.w3.org/2000/svg" viewBox="0 0 16 16"><path d="m4.95.24 3.37 3.88-2.14 2.15-.92.06.1 1.45h1.5l2.31-.25h1.45l.64-.04 1.28 1.48.8 2.79.68 1.62.81 1.4.93-.26-3.48-12.14L14.4.24h-2.2L9.42 3.01 7.03.24Zm-3.78.97-.93.27 3.48 12.14-2.13 2.14h2.2l2.78-2.77 2.4 2.77h2.08l-3.37-3.88 2.14-2.15.92-.06-.1-1.45h-1.5l-2.31.25H5.38l-.64.04-1.28-1.48-.8-2.79-.68-1.62ZM11 3.65l.5 1.75-1.05-1.2ZM9.35 5.3l.62.71-1.42.1Zm-1.9 4.6-.8.8-.62-.71Zm-2.97.7 1.06 1.2-.55.55z" fill="#eee" stroke="#000" stroke-width=".48" stroke-linejoin="round"/></svg>