<svg xmlns="http://www.w3.org/2000/svg" viewBox="0 0 756.44 191.77">
  <path
    d="M33 189.9c-.53-.35-3.39-2.7-6.35-5.2a2933.21 2933.21 0 0 0-20.83-17.5l-4.5-3.74-.03-30.93-.02-30.93h228v4.79c0 5.04.2 5.76 1.76 6.22.57.17 1.06 0 1.6-.53.69-.69.76-1.22.76-5.62v-4.86h505.04l8.38 7c4.6 3.86 8.37 7.18 8.37 7.4 0 .31-8.6 10.63-40.32 48.4l-13.48 16.07a327.8 327.8 0 0 1-8.4 9.8c-.22.16-103.68.24-229.9.2l-229.5-.1-.2-4.9c-.19-5.18-.5-6.13-2-6.12-1.76.01-1.9.42-2.1 5.87l-.19 5.15-97.56.1c-92.26.08-97.6.05-98.52-.57zm659.93-23.24c.5-.54.58-.97.34-1.67-.43-1.29-15.33-13.68-16.44-13.68-1.01 0-2 .93-2 1.87 0 .84 1.05 1.84 9.31 8.75 3.99 3.34 6.83 5.46 7.33 5.46.44 0 1.1-.33 1.46-.73zm-274.59-3.22a5.16 5.16 0 0 0 1.84-7.75c-3.12-4.09-9.72-1.39-9.14 3.74a5.1 5.1 0 0 0 7.3 4zm-185.32-3.74c.22-.56.37-6.44.37-14.02 0-12.56-.03-13.08-.75-13.8-.88-.89-1.47-.94-2.45-.22-.7.5-.73 1.16-.83 13.77-.07 8.29.03 13.61.27 14.23.3.82.61 1 1.7 1 1.08 0 1.4-.18 1.7-.96zm311.74-9.51a5.17 5.17 0 0 0 2.04-4.87c-.72-4.3-5.8-5.97-8.66-2.85-1.4 1.54-1.8 2.73-1.46 4.5.69 3.69 5 5.4 8.08 3.22zm-489.98-6.2c1.38-.7 2.7-3.55 2.4-5.17-.87-4.64-7.08-5.91-9.52-1.96-2.88 4.66 2.13 9.68 7.12 7.13zm209.26-7.5c2.74-3.12.4-8.35-3.72-8.35-3.01 0-5.25 2.11-5.25 4.97 0 4.9 5.74 7.06 8.97 3.38zm454.87-.67c1.14-1.37.37-2.28-7.62-9-6.14-5.15-8.02-6.54-8.74-6.46-1.19.15-1.96 1.35-1.55 2.41.17.45 3.73 3.68 7.9 7.2 7.75 6.51 8.9 7.19 10.01 5.85z"
    style="fill:#c76e04" />
  <path
    d="M155.9 166.52c.65-.5.59-1.97-.12-2.68-.81-.81-2.3-.74-2.76.14-1.21 2.26.87 4.09 2.88 2.54zm153.64.02c1.06-1.05.1-3.28-1.42-3.28-1.51 0-2.47 2.23-1.42 3.28.25.25.89.45 1.42.45.54 0 1.18-.2 1.42-.45zm153.84-.37c.64-1.02-.14-2.7-1.31-2.84-1.74-.2-2.93 2.03-1.73 3.23.64.64 2.55.39 3.04-.39zm-307.7-37.92c1.56-1.4.12-3.96-1.85-3.28-.76.27-1.04.64-1.13 1.52-.2 2.01 1.56 3.05 2.98 1.76zm153.72.03c.77-.76.75-1.98-.03-2.84-.76-.85-1.54-.87-2.43-.07-.85.77-.88 1.92-.07 2.81.76.84 1.75.88 2.53.1zm153.63 0c1.15-1.16.36-3.52-1.19-3.52-.86 0-1.96 1.11-1.96 1.99 0 .96 1.04 2.12 1.9 2.12.36 0 .93-.27 1.25-.59z"
    style="fill:#000;stroke:#000;stroke-width:2.54;stroke-opacity:1;stroke-linecap:round;stroke-linejoin:round" />
  <text x="106.91" y="87.79" style="font-size:38.1px;line-height:1.25;font-family:'Menlo','Monaco','Lucida Console','Liberation Mono','DejaVu Sans Mono','Bitstream Vera Sans Mono','Courier New',monospace;stroke-width:.265">
    6&quot;</text>
  <text x="238.51" y="87.79" style="font-size:38.1px;line-height:1.25;font-family:'Menlo','Monaco','Lucida Console','Liberation Mono','DejaVu Sans Mono','Bitstream Vera Sans Mono','Courier New',monospace;stroke-width:.265">
    12&quot;</text>
  <text x="391.87" y="87.79" style="font-size:38.1px;line-height:1.25;font-family:'Menlo','Monaco','Lucida Console','Liberation Mono','DejaVu Sans Mono','Bitstream Vera Sans Mono','Courier New',monospace;stroke-width:.265">
    18&quot;
  </text>
  <path d="M1.27 90.17v-38.1h152.9v38.1" style="fill:none;stroke:#000;stroke-width:2.54;stroke-linejoin:round" />
  <path d="M1.27 39.37v-12.7h306.88v63.5" style="fill:none;stroke:#000;stroke-width:2.54;stroke-linejoin:round" />
  <path d="M1.27 13.97V1.27h460.2v88.9" style="fill:none;stroke:#000;stroke-width:2.54;stroke-linejoin:round" />
</svg>